<?xml version="1.0" encoding="UTF-8"?>
<svg version="1.1" xmlns="http://www.w3.org/2000/svg" width="512" height="512">
<path d="M0 0 C0.76618652 0.18191895 1.53237305 0.36383789 2.32177734 0.55126953 C29.7112574 7.19528171 56.38348334 22.16795597 71.6875 46.5 C81.57456949 64.46189191 84.02199222 84.1264758 84.578125 104.3046875 C84.59895708 105.02729578 84.61978916 105.74990406 84.64125252 106.49440956 C85.08282421 122.43589853 85.05952539 138.37787365 85.02734375 154.32421875 C85.02348128 156.27964379 85.02348128 156.27964379 85.01954079 158.27457237 C84.99306772 170.52269028 84.95373458 182.77075399 84.90405273 195.01879883 C84.87668444 201.78945716 84.86019214 208.56008557 84.84918404 215.33078957 C84.84303622 217.87700423 84.83311093 220.42321303 84.81910515 222.96939659 C84.65622073 252.76453854 88.28175768 274.52641685 107.00024414 298.65771484 C107.50289795 299.30820801 108.00555176 299.95870117 108.5234375 300.62890625 C108.97638184 301.20713135 109.42932617 301.78535645 109.89599609 302.38110352 C112.06992566 305.5689246 112.53623131 309.02689852 112.453125 312.8359375 C111.522393 317.28098518 108.19118587 319.97052963 105 323 C104.0925 323.86882812 103.185 324.73765625 102.25 325.6328125 C96.59226709 330.96021466 90.70186427 335.94634998 84.6484375 340.8203125 C82.02724881 342.97757399 79.50845719 345.21311 77 347.5 C71.8249727 352.20531941 66.47088758 356.64419778 61 361 C60.01 361.845625 59.02 362.69125 58 363.5625 C53.47441328 365.7310103 48.92756881 365.79615741 44 365 C30.01521475 358.23029504 19.19730186 342.56347959 10.375 330.375 C9.93647705 329.77059082 9.4979541 329.16618164 9.04614258 328.54345703 C6 324.2455508 6 324.2455508 6 322 C2.48298956 325.04337293 -1.02633601 328.0861086 -4.41796875 331.26953125 C-24.83654377 350.39070816 -47.06842997 362.84535441 -75 367 C-75.63558838 367.09498779 -76.27117676 367.18997559 -76.92602539 367.2878418 C-106.27987073 371.1343991 -138.3355604 368.79692161 -163 351 C-166.47278187 348.13666245 -169.75037292 345.1123962 -173 342 C-173.639375 341.42378906 -174.27875 340.84757812 -174.9375 340.25390625 C-191.30931068 325.0149664 -199.25216731 299.81342007 -200.12109375 277.95361328 C-201.0346586 245.97427581 -195.72536066 217.24242645 -175 192 C-174.19175781 190.94619141 -174.19175781 190.94619141 -173.3671875 189.87109375 C-145.37482651 155.05647392 -93.06539922 146.04543886 -51.38232422 141.34960938 C-42.13386343 140.34908634 -32.8722559 139.4762309 -23.60546875 138.6640625 C-22.83718246 138.59564148 -22.06889618 138.52722046 -21.27732849 138.45672607 C-16.83357396 138.08328525 -12.45943683 137.93751716 -8 138 C-8.09489618 133.8045085 -8.20125318 129.60949563 -8.31738281 125.41455078 C-8.35522034 123.99307816 -8.39014384 122.57152439 -8.421875 121.14990234 C-8.76045645 106.15709241 -9.21699978 89.05570355 -20.21484375 77.5234375 C-30.57203628 68.68469551 -43.50650339 65.24182824 -57 66 C-71.38737203 67.84268373 -85.64414238 73.79341488 -94.83203125 85.29296875 C-99.12613563 91.47685327 -101.63869432 97.91366977 -103.78369141 105.07373047 C-105.29006923 109.86857 -107.04569466 112.67737283 -111 116 C-118.06661864 119.53330932 -129.58379814 116.51565567 -137.11328125 115.57421875 C-138.3264653 115.42596146 -139.53964935 115.27770416 -140.78959656 115.12495422 C-143.33550175 114.81145737 -145.88097631 114.49444504 -148.42602539 114.17407227 C-152.31703342 113.68693243 -156.2100431 113.2189345 -160.10351562 112.75195312 C-162.58608165 112.44386769 -165.06850894 112.13466182 -167.55078125 111.82421875 C-168.71023758 111.68658615 -169.86969391 111.54895355 -171.06428528 111.40715027 C-183.29595157 109.83008458 -183.29595157 109.83008458 -187.84375 105.0703125 C-191.63340448 98.28478251 -188.45378643 89.38706102 -186.47363281 82.38378906 C-181.94849777 67.66048586 -175.05627149 53.70249386 -165 42 C-164.31679687 41.15695313 -163.63359375 40.31390625 -162.9296875 39.4453125 C-145.03011747 18.24323877 -118.3593275 6.62385018 -92 0 C-91.16726562 -0.21317871 -90.33453125 -0.42635742 -89.4765625 -0.64599609 C-61.57577986 -7.41193588 -27.80013125 -6.96290589 0 0 Z M-36.6875 191.75 C-37.85418213 191.88414307 -37.85418213 191.88414307 -39.04443359 192.02099609 C-61.17666825 194.78470761 -80.0178884 202.42276974 -94.4375 219.9375 C-101.76632827 230.48755367 -104.39231432 242.69373994 -104.3125 255.3125 C-104.30758545 256.23458252 -104.3026709 257.15666504 -104.29760742 258.10668945 C-104.07220415 271.2505899 -100.89958553 283.15553626 -91.6875 292.875 C-83.7400046 300.33564552 -74.5619966 303.52889195 -63.69921875 303.24609375 C-49.06165246 301.91155442 -36.60388788 295.01441719 -27.16796875 283.828125 C-10.62355188 261.56972217 -7.61731917 236.91549171 -7.875 210 C-7.88506285 208.14583824 -7.89418279 206.29167111 -7.90234375 204.4375 C-7.92406561 199.95819727 -7.9584078 195.47916047 -8 191 C-22.36787947 190.78325909 -22.36787947 190.78325909 -36.6875 191.75 Z " fill="#656565" transform="translate(291,4)"/>
<path d="M0 0 C0.86560547 0.47791992 1.73121094 0.95583984 2.62304688 1.44824219 C3.54794922 1.94549805 4.47285156 2.44275391 5.42578125 2.95507812 C11.7855643 6.38813877 18.08675738 9.92656852 24.38989258 13.4621582 C117.45314882 65.31585071 209.94242011 87.65972187 314.74804688 61.51074219 C315.78590332 61.25599121 316.82375977 61.00124023 317.89306641 60.73876953 C347.14484473 53.48381907 375.25023789 43.32344888 402.99365234 31.64306641 C408.87466693 29.22539705 413.90941924 28.50887361 419.93554688 30.63574219 C423.82001365 33.2253867 426.63461708 36.2838826 428.74804688 40.51074219 C429.12209287 46.12143218 429.02630748 49.74236312 425.74804688 54.51074219 C402.17591003 79.78622692 362.32255633 94.87628858 330.74804688 106.51074219 C329.81105957 106.85621094 328.87407227 107.20167969 327.90869141 107.55761719 C308.20964069 114.70891847 287.78540104 119.58347618 267.18554688 123.32324219 C266.11812256 123.51805176 265.05069824 123.71286133 263.95092773 123.91357422 C246.81057109 126.87578279 229.8732157 127.89002121 212.49804688 127.82324219 C211.50980927 127.82141937 210.52157166 127.81959656 209.50338745 127.81771851 C195.06575553 127.77291785 180.9415785 127.38784701 166.74804688 124.51074219 C165.84231934 124.33381836 164.9365918 124.15689453 164.00341797 123.97460938 C150.97199162 121.37774279 138.29771231 117.86118996 125.74804688 113.51074219 C124.95172852 113.23955566 124.15541016 112.96836914 123.33496094 112.68896484 C87.42958865 100.30854101 54.63205462 79.69104009 24.74804688 56.51074219 C24.19310547 56.08051758 23.63816406 55.65029297 23.06640625 55.20703125 C-24.6469724 18.14630881 -24.6469724 18.14630881 -25.55273438 11.20605469 C-25.59439348 2.06882386 -25.59439348 2.06882386 -22.25195312 -1.48925781 C-14.14408466 -6.2585922 -7.72938467 -4.11732592 0 0 Z " fill="#FFCC65" transform="translate(25.251953125,384.4892578125)"/>
<path d="M0 0 C3.40655487 3.10716644 5.7927053 6.46299877 6.17700195 11.16625977 C6.86714322 39.60502905 0.05390489 67.98586044 -19 90 C-19.66128906 90.804375 -20.32257813 91.60875 -21.00390625 92.4375 C-28.55942448 101.38369237 -28.55942448 101.38369237 -35.1953125 102.3046875 C-39.21234958 102.53006582 -41.42614927 102.34186852 -44.9375 100.25 C-48.06893211 96.83389225 -49.01067994 94.93498024 -48.95703125 90.23828125 C-48.04636471 83.70628213 -45.63578317 77.54707619 -43.4503479 71.35543823 C-38.88654861 58.38557232 -35.07027138 45.63066679 -33 32 C-47.01469937 29.23276637 -61.7066769 31.04711573 -75.71386719 32.93261719 C-94.60483491 35.41408284 -94.60483491 35.41408284 -98.8190918 32.92602539 C-100.1875 31.5625 -100.1875 31.5625 -102 29 C-102.33 28.67 -102.66 28.34 -103 28 C-103.56635365 23.58986913 -103.42353104 19.96257054 -101.625 15.875 C-80.45049179 -7.31612804 -27.5172663 -15.60853341 0 0 Z " fill="#FFCC65" transform="translate(506,367)"/>
</svg>
